<mxfile host="app.diagrams.net" modified="2024-03-20T14:31:30.110Z" agent="Mozilla/5.0 (Windows NT 10.0; Win64; x64) AppleWebKit/537.36 (KHTML, like Gecko) Chrome/120.0.0.0 Safari/537.36" etag="F1zWhlkGY2lRkPGPkk3y" version="24.0.7" type="device">
  <diagram name="Page-1" id="mfLy5x7W0T2jpKFvN7po">
    <mxGraphModel dx="3035" dy="1085" grid="1" gridSize="10" guides="1" tooltips="1" connect="1" arrows="1" fold="1" page="1" pageScale="1" pageWidth="850" pageHeight="1100" math="0" shadow="0">
      <root>
        <mxCell id="0" />
        <mxCell id="1" parent="0" />
        <mxCell id="y3j9ZMoMXge08qY5BpBT-4" style="edgeStyle=orthogonalEdgeStyle;rounded=0;orthogonalLoop=1;jettySize=auto;html=1;exitX=1;exitY=0.5;exitDx=0;exitDy=0;" edge="1" parent="1" source="y3j9ZMoMXge08qY5BpBT-1" target="y3j9ZMoMXge08qY5BpBT-2">
          <mxGeometry relative="1" as="geometry">
            <Array as="points">
              <mxPoint x="260" y="70" />
              <mxPoint x="260" y="560" />
            </Array>
          </mxGeometry>
        </mxCell>
        <mxCell id="y3j9ZMoMXge08qY5BpBT-5" style="edgeStyle=orthogonalEdgeStyle;rounded=0;orthogonalLoop=1;jettySize=auto;html=1;exitX=1;exitY=0.75;exitDx=0;exitDy=0;entryX=0;entryY=0.25;entryDx=0;entryDy=0;" edge="1" parent="1" source="y3j9ZMoMXge08qY5BpBT-1" target="y3j9ZMoMXge08qY5BpBT-3">
          <mxGeometry relative="1" as="geometry" />
        </mxCell>
        <mxCell id="y3j9ZMoMXge08qY5BpBT-24" style="edgeStyle=orthogonalEdgeStyle;rounded=0;orthogonalLoop=1;jettySize=auto;html=1;exitX=0;exitY=0.5;exitDx=0;exitDy=0;" edge="1" parent="1" source="y3j9ZMoMXge08qY5BpBT-1" target="y3j9ZMoMXge08qY5BpBT-23">
          <mxGeometry relative="1" as="geometry" />
        </mxCell>
        <mxCell id="y3j9ZMoMXge08qY5BpBT-104" style="edgeStyle=orthogonalEdgeStyle;rounded=0;orthogonalLoop=1;jettySize=auto;html=1;exitX=0.25;exitY=1;exitDx=0;exitDy=0;entryX=0.25;entryY=0;entryDx=0;entryDy=0;" edge="1" parent="1" source="y3j9ZMoMXge08qY5BpBT-1" target="y3j9ZMoMXge08qY5BpBT-86">
          <mxGeometry relative="1" as="geometry">
            <Array as="points">
              <mxPoint x="-80" y="100" />
              <mxPoint x="-80" y="730" />
              <mxPoint x="-420" y="730" />
            </Array>
          </mxGeometry>
        </mxCell>
        <mxCell id="y3j9ZMoMXge08qY5BpBT-1" value="BrokersController" style="rounded=0;whiteSpace=wrap;html=1;fillColor=#e1d5e7;strokeColor=#9673a6;" vertex="1" parent="1">
          <mxGeometry x="40" y="40" width="120" height="60" as="geometry" />
        </mxCell>
        <mxCell id="y3j9ZMoMXge08qY5BpBT-105" style="edgeStyle=orthogonalEdgeStyle;rounded=0;orthogonalLoop=1;jettySize=auto;html=1;exitX=0.25;exitY=1;exitDx=0;exitDy=0;entryX=0.5;entryY=0;entryDx=0;entryDy=0;" edge="1" parent="1" source="y3j9ZMoMXge08qY5BpBT-2" target="y3j9ZMoMXge08qY5BpBT-86">
          <mxGeometry relative="1" as="geometry">
            <Array as="points">
              <mxPoint x="250" y="610" />
              <mxPoint x="250" y="985" />
              <mxPoint x="-360" y="985" />
            </Array>
          </mxGeometry>
        </mxCell>
        <mxCell id="y3j9ZMoMXge08qY5BpBT-2" value="IBrokerRepository" style="rounded=0;whiteSpace=wrap;html=1;fillColor=#fff2cc;strokeColor=#d6b656;" vertex="1" parent="1">
          <mxGeometry x="450" y="550" width="150" height="60" as="geometry" />
        </mxCell>
        <mxCell id="y3j9ZMoMXge08qY5BpBT-3" value="IPaginationHelper" style="rounded=0;whiteSpace=wrap;html=1;fillColor=#fff2cc;strokeColor=#d6b656;" vertex="1" parent="1">
          <mxGeometry x="450" y="70" width="150" height="60" as="geometry" />
        </mxCell>
        <mxCell id="y3j9ZMoMXge08qY5BpBT-8" style="edgeStyle=orthogonalEdgeStyle;rounded=0;orthogonalLoop=1;jettySize=auto;html=1;exitX=1;exitY=0.5;exitDx=0;exitDy=0;entryX=0;entryY=0.75;entryDx=0;entryDy=0;" edge="1" parent="1" source="y3j9ZMoMXge08qY5BpBT-6" target="y3j9ZMoMXge08qY5BpBT-7">
          <mxGeometry relative="1" as="geometry">
            <Array as="points">
              <mxPoint x="200" y="180" />
              <mxPoint x="200" y="755" />
            </Array>
          </mxGeometry>
        </mxCell>
        <mxCell id="y3j9ZMoMXge08qY5BpBT-9" style="edgeStyle=orthogonalEdgeStyle;rounded=0;orthogonalLoop=1;jettySize=auto;html=1;exitX=1;exitY=0.25;exitDx=0;exitDy=0;entryX=0;entryY=0.5;entryDx=0;entryDy=0;" edge="1" parent="1" source="y3j9ZMoMXge08qY5BpBT-6" target="y3j9ZMoMXge08qY5BpBT-3">
          <mxGeometry relative="1" as="geometry" />
        </mxCell>
        <mxCell id="y3j9ZMoMXge08qY5BpBT-27" style="edgeStyle=orthogonalEdgeStyle;rounded=0;orthogonalLoop=1;jettySize=auto;html=1;exitX=0;exitY=0.5;exitDx=0;exitDy=0;" edge="1" parent="1" source="y3j9ZMoMXge08qY5BpBT-6" target="y3j9ZMoMXge08qY5BpBT-25">
          <mxGeometry relative="1" as="geometry" />
        </mxCell>
        <mxCell id="y3j9ZMoMXge08qY5BpBT-54" style="edgeStyle=orthogonalEdgeStyle;rounded=0;orthogonalLoop=1;jettySize=auto;html=1;exitX=0;exitY=0.75;exitDx=0;exitDy=0;entryX=1;entryY=0.5;entryDx=0;entryDy=0;" edge="1" parent="1" source="y3j9ZMoMXge08qY5BpBT-6" target="y3j9ZMoMXge08qY5BpBT-52">
          <mxGeometry relative="1" as="geometry" />
        </mxCell>
        <mxCell id="y3j9ZMoMXge08qY5BpBT-98" style="edgeStyle=orthogonalEdgeStyle;rounded=0;orthogonalLoop=1;jettySize=auto;html=1;exitX=0;exitY=1;exitDx=0;exitDy=0;entryX=0.25;entryY=0;entryDx=0;entryDy=0;" edge="1" parent="1" source="y3j9ZMoMXge08qY5BpBT-6" target="y3j9ZMoMXge08qY5BpBT-87">
          <mxGeometry relative="1" as="geometry">
            <Array as="points">
              <mxPoint y="210" />
              <mxPoint y="1200" />
              <mxPoint x="58" y="1200" />
            </Array>
          </mxGeometry>
        </mxCell>
        <mxCell id="y3j9ZMoMXge08qY5BpBT-6" value="StocksController" style="rounded=0;whiteSpace=wrap;html=1;fillColor=#e1d5e7;strokeColor=#9673a6;" vertex="1" parent="1">
          <mxGeometry x="40" y="150" width="120" height="60" as="geometry" />
        </mxCell>
        <mxCell id="y3j9ZMoMXge08qY5BpBT-100" style="edgeStyle=orthogonalEdgeStyle;rounded=0;orthogonalLoop=1;jettySize=auto;html=1;exitX=0.5;exitY=1;exitDx=0;exitDy=0;entryX=0.75;entryY=0;entryDx=0;entryDy=0;" edge="1" parent="1" source="y3j9ZMoMXge08qY5BpBT-7" target="y3j9ZMoMXge08qY5BpBT-87">
          <mxGeometry relative="1" as="geometry">
            <Array as="points">
              <mxPoint x="525" y="810" />
              <mxPoint x="173" y="810" />
            </Array>
          </mxGeometry>
        </mxCell>
        <mxCell id="y3j9ZMoMXge08qY5BpBT-7" value="IStockRepository" style="rounded=0;whiteSpace=wrap;html=1;fillColor=#fff2cc;strokeColor=#d6b656;" vertex="1" parent="1">
          <mxGeometry x="450" y="710" width="150" height="60" as="geometry" />
        </mxCell>
        <mxCell id="y3j9ZMoMXge08qY5BpBT-13" style="edgeStyle=orthogonalEdgeStyle;rounded=0;orthogonalLoop=1;jettySize=auto;html=1;exitX=1;exitY=0.5;exitDx=0;exitDy=0;entryX=0;entryY=0.25;entryDx=0;entryDy=0;fillColor=#e1d5e7;strokeColor=#9673a6;" edge="1" parent="1" source="y3j9ZMoMXge08qY5BpBT-10" target="y3j9ZMoMXge08qY5BpBT-7">
          <mxGeometry relative="1" as="geometry">
            <Array as="points">
              <mxPoint x="320" y="310" />
              <mxPoint x="320" y="725" />
            </Array>
          </mxGeometry>
        </mxCell>
        <mxCell id="y3j9ZMoMXge08qY5BpBT-15" style="edgeStyle=orthogonalEdgeStyle;rounded=0;orthogonalLoop=1;jettySize=auto;html=1;exitX=0.75;exitY=1;exitDx=0;exitDy=0;entryX=0;entryY=0.5;entryDx=0;entryDy=0;fillColor=#e1d5e7;strokeColor=#9673a6;" edge="1" parent="1" source="y3j9ZMoMXge08qY5BpBT-10" target="y3j9ZMoMXge08qY5BpBT-14">
          <mxGeometry relative="1" as="geometry" />
        </mxCell>
        <mxCell id="y3j9ZMoMXge08qY5BpBT-16" style="edgeStyle=orthogonalEdgeStyle;rounded=0;orthogonalLoop=1;jettySize=auto;html=1;exitX=1;exitY=0.25;exitDx=0;exitDy=0;entryX=0;entryY=0.75;entryDx=0;entryDy=0;fillColor=#e1d5e7;strokeColor=#9673a6;" edge="1" parent="1" source="y3j9ZMoMXge08qY5BpBT-10" target="y3j9ZMoMXge08qY5BpBT-3">
          <mxGeometry relative="1" as="geometry">
            <Array as="points">
              <mxPoint x="160" y="290" />
              <mxPoint x="450" y="290" />
            </Array>
          </mxGeometry>
        </mxCell>
        <mxCell id="y3j9ZMoMXge08qY5BpBT-28" style="edgeStyle=orthogonalEdgeStyle;rounded=0;orthogonalLoop=1;jettySize=auto;html=1;exitX=0;exitY=0.5;exitDx=0;exitDy=0;fillColor=#e1d5e7;strokeColor=#9673a6;" edge="1" parent="1" source="y3j9ZMoMXge08qY5BpBT-10" target="y3j9ZMoMXge08qY5BpBT-26">
          <mxGeometry relative="1" as="geometry" />
        </mxCell>
        <mxCell id="y3j9ZMoMXge08qY5BpBT-62" style="edgeStyle=orthogonalEdgeStyle;rounded=0;orthogonalLoop=1;jettySize=auto;html=1;exitX=0.5;exitY=1;exitDx=0;exitDy=0;entryX=0;entryY=0.5;entryDx=0;entryDy=0;fillColor=#e1d5e7;strokeColor=#9673a6;" edge="1" parent="1" source="y3j9ZMoMXge08qY5BpBT-10" target="y3j9ZMoMXge08qY5BpBT-11">
          <mxGeometry relative="1" as="geometry" />
        </mxCell>
        <mxCell id="y3j9ZMoMXge08qY5BpBT-90" style="edgeStyle=orthogonalEdgeStyle;rounded=0;orthogonalLoop=1;jettySize=auto;html=1;exitX=0.25;exitY=1;exitDx=0;exitDy=0;entryX=0.25;entryY=0;entryDx=0;entryDy=0;fillColor=#d0cee2;strokeColor=#56517e;" edge="1" parent="1" source="y3j9ZMoMXge08qY5BpBT-10" target="y3j9ZMoMXge08qY5BpBT-88">
          <mxGeometry relative="1" as="geometry">
            <Array as="points">
              <mxPoint x="70" y="850" />
              <mxPoint x="300" y="850" />
              <mxPoint x="300" y="1200" />
              <mxPoint x="540" y="1200" />
            </Array>
          </mxGeometry>
        </mxCell>
        <mxCell id="y3j9ZMoMXge08qY5BpBT-10" value="TradesController" style="rounded=0;whiteSpace=wrap;html=1;fillColor=#e1d5e7;strokeColor=#9673a6;" vertex="1" parent="1">
          <mxGeometry x="40" y="280" width="120" height="60" as="geometry" />
        </mxCell>
        <mxCell id="y3j9ZMoMXge08qY5BpBT-92" style="edgeStyle=orthogonalEdgeStyle;rounded=0;orthogonalLoop=1;jettySize=auto;html=1;exitX=0;exitY=0.75;exitDx=0;exitDy=0;" edge="1" parent="1" source="y3j9ZMoMXge08qY5BpBT-11" target="y3j9ZMoMXge08qY5BpBT-88">
          <mxGeometry relative="1" as="geometry">
            <Array as="points">
              <mxPoint x="410" y="915" />
              <mxPoint x="410" y="1145" />
              <mxPoint x="600" y="1145" />
            </Array>
          </mxGeometry>
        </mxCell>
        <mxCell id="y3j9ZMoMXge08qY5BpBT-11" value="ITradeRepository" style="rounded=0;whiteSpace=wrap;html=1;fillColor=#fff2cc;strokeColor=#d6b656;" vertex="1" parent="1">
          <mxGeometry x="450" y="870" width="150" height="60" as="geometry" />
        </mxCell>
        <mxCell id="y3j9ZMoMXge08qY5BpBT-14" value="ITradeGeneratorService" style="rounded=0;whiteSpace=wrap;html=1;fillColor=#fff2cc;strokeColor=#d6b656;" vertex="1" parent="1">
          <mxGeometry x="450" y="330" width="150" height="60" as="geometry" />
        </mxCell>
        <mxCell id="y3j9ZMoMXge08qY5BpBT-19" value="CustomExceptionMiddleware" style="rounded=0;whiteSpace=wrap;html=1;fillColor=#f8cecc;strokeColor=#b85450;" vertex="1" parent="1">
          <mxGeometry x="-840" y="75" width="170" height="60" as="geometry" />
        </mxCell>
        <mxCell id="y3j9ZMoMXge08qY5BpBT-20" value="" style="shape=flexArrow;endArrow=classic;html=1;rounded=0;fillColor=#f8cecc;strokeColor=#b85450;" edge="1" parent="1">
          <mxGeometry width="50" height="50" relative="1" as="geometry">
            <mxPoint x="-670" y="99.65" as="sourcePoint" />
            <mxPoint x="-620" y="99.65" as="targetPoint" />
          </mxGeometry>
        </mxCell>
        <mxCell id="y3j9ZMoMXge08qY5BpBT-21" value="Used directly in Program.cs&lt;i&gt;&lt;br&gt;(&lt;span style=&quot;background-color: initial;&quot;&gt;app.UseMiddleware&amp;lt;CustomExceptionMiddleware&amp;gt;();&lt;/span&gt;)&lt;/i&gt;" style="text;html=1;align=center;verticalAlign=middle;whiteSpace=wrap;rounded=0;" vertex="1" parent="1">
          <mxGeometry x="-630" y="70" width="320" height="40" as="geometry" />
        </mxCell>
        <mxCell id="y3j9ZMoMXge08qY5BpBT-23" value="BrokerDto" style="rounded=0;whiteSpace=wrap;html=1;fillColor=#d5e8d4;strokeColor=#82b366;" vertex="1" parent="1">
          <mxGeometry x="-240" y="40" width="120" height="60" as="geometry" />
        </mxCell>
        <mxCell id="y3j9ZMoMXge08qY5BpBT-25" value="StockDto" style="rounded=0;whiteSpace=wrap;html=1;fillColor=#d5e8d4;strokeColor=#82b366;" vertex="1" parent="1">
          <mxGeometry x="-240" y="150" width="120" height="60" as="geometry" />
        </mxCell>
        <mxCell id="y3j9ZMoMXge08qY5BpBT-26" value="TradeDto" style="rounded=0;whiteSpace=wrap;html=1;fillColor=#d5e8d4;strokeColor=#82b366;" vertex="1" parent="1">
          <mxGeometry x="-240" y="280" width="120" height="60" as="geometry" />
        </mxCell>
        <mxCell id="y3j9ZMoMXge08qY5BpBT-30" style="edgeStyle=orthogonalEdgeStyle;rounded=0;orthogonalLoop=1;jettySize=auto;html=1;exitX=0;exitY=0.5;exitDx=0;exitDy=0;entryX=1;entryY=0.5;entryDx=0;entryDy=0;dashed=1;" edge="1" parent="1" source="y3j9ZMoMXge08qY5BpBT-29" target="y3j9ZMoMXge08qY5BpBT-14">
          <mxGeometry relative="1" as="geometry" />
        </mxCell>
        <mxCell id="y3j9ZMoMXge08qY5BpBT-61" style="edgeStyle=orthogonalEdgeStyle;rounded=0;orthogonalLoop=1;jettySize=auto;html=1;exitX=0.25;exitY=1;exitDx=0;exitDy=0;entryX=0.75;entryY=0;entryDx=0;entryDy=0;" edge="1" parent="1" source="y3j9ZMoMXge08qY5BpBT-29" target="y3j9ZMoMXge08qY5BpBT-7">
          <mxGeometry relative="1" as="geometry">
            <Array as="points">
              <mxPoint x="860" y="420" />
              <mxPoint x="770" y="420" />
              <mxPoint x="770" y="640" />
              <mxPoint x="562" y="640" />
            </Array>
          </mxGeometry>
        </mxCell>
        <mxCell id="y3j9ZMoMXge08qY5BpBT-73" style="edgeStyle=orthogonalEdgeStyle;rounded=0;orthogonalLoop=1;jettySize=auto;html=1;exitX=0.5;exitY=1;exitDx=0;exitDy=0;entryX=0.44;entryY=0.017;entryDx=0;entryDy=0;entryPerimeter=0;" edge="1" parent="1" source="y3j9ZMoMXge08qY5BpBT-29" target="y3j9ZMoMXge08qY5BpBT-63">
          <mxGeometry relative="1" as="geometry" />
        </mxCell>
        <mxCell id="y3j9ZMoMXge08qY5BpBT-77" style="edgeStyle=orthogonalEdgeStyle;rounded=0;orthogonalLoop=1;jettySize=auto;html=1;exitX=0;exitY=0.75;exitDx=0;exitDy=0;entryX=1;entryY=0.25;entryDx=0;entryDy=0;" edge="1" parent="1" source="y3j9ZMoMXge08qY5BpBT-29" target="y3j9ZMoMXge08qY5BpBT-11">
          <mxGeometry relative="1" as="geometry">
            <Array as="points">
              <mxPoint x="640" y="375" />
              <mxPoint x="640" y="885" />
            </Array>
          </mxGeometry>
        </mxCell>
        <mxCell id="y3j9ZMoMXge08qY5BpBT-91" style="edgeStyle=orthogonalEdgeStyle;rounded=0;orthogonalLoop=1;jettySize=auto;html=1;exitX=1;exitY=0.5;exitDx=0;exitDy=0;entryX=0.75;entryY=0;entryDx=0;entryDy=0;" edge="1" parent="1" source="y3j9ZMoMXge08qY5BpBT-29" target="y3j9ZMoMXge08qY5BpBT-88">
          <mxGeometry relative="1" as="geometry">
            <Array as="points">
              <mxPoint x="1130" y="360" />
              <mxPoint x="1130" y="1150" />
              <mxPoint x="660" y="1150" />
            </Array>
          </mxGeometry>
        </mxCell>
        <mxCell id="y3j9ZMoMXge08qY5BpBT-29" value="TradeGeneratorService" style="rounded=0;whiteSpace=wrap;html=1;fillColor=#ffe6cc;strokeColor=#d79b00;" vertex="1" parent="1">
          <mxGeometry x="820" y="330" width="160" height="60" as="geometry" />
        </mxCell>
        <mxCell id="y3j9ZMoMXge08qY5BpBT-31" value="Implements" style="text;html=1;align=center;verticalAlign=middle;whiteSpace=wrap;rounded=0;" vertex="1" parent="1">
          <mxGeometry x="700" y="330" width="60" height="30" as="geometry" />
        </mxCell>
        <mxCell id="y3j9ZMoMXge08qY5BpBT-39" style="edgeStyle=orthogonalEdgeStyle;rounded=0;orthogonalLoop=1;jettySize=auto;html=1;exitX=0;exitY=0.75;exitDx=0;exitDy=0;entryX=1;entryY=0.75;entryDx=0;entryDy=0;dashed=1;" edge="1" parent="1" source="y3j9ZMoMXge08qY5BpBT-34" target="y3j9ZMoMXge08qY5BpBT-3">
          <mxGeometry relative="1" as="geometry" />
        </mxCell>
        <mxCell id="y3j9ZMoMXge08qY5BpBT-34" value="PaginationHelper" style="rounded=0;whiteSpace=wrap;html=1;fillColor=#ffe6cc;strokeColor=#d79b00;" vertex="1" parent="1">
          <mxGeometry x="820" y="70" width="160" height="60" as="geometry" />
        </mxCell>
        <mxCell id="y3j9ZMoMXge08qY5BpBT-40" value="Implements" style="text;html=1;align=center;verticalAlign=middle;whiteSpace=wrap;rounded=0;" vertex="1" parent="1">
          <mxGeometry x="690" y="80" width="60" height="30" as="geometry" />
        </mxCell>
        <mxCell id="y3j9ZMoMXge08qY5BpBT-41" value="ValidTickerSymbolsAttribute" style="rounded=0;whiteSpace=wrap;html=1;fillColor=#dae8fc;strokeColor=#6c8ebf;" vertex="1" parent="1">
          <mxGeometry x="-560" y="400" width="200" height="60" as="geometry" />
        </mxCell>
        <mxCell id="y3j9ZMoMXge08qY5BpBT-42" value="IDatabaseConfiguration" style="rounded=0;whiteSpace=wrap;html=1;fillColor=#fff2cc;strokeColor=#d6b656;" vertex="1" parent="1">
          <mxGeometry x="440" y="1000" width="160" height="60" as="geometry" />
        </mxCell>
        <mxCell id="y3j9ZMoMXge08qY5BpBT-45" style="edgeStyle=orthogonalEdgeStyle;rounded=0;orthogonalLoop=1;jettySize=auto;html=1;exitX=0;exitY=0.75;exitDx=0;exitDy=0;entryX=1;entryY=0.25;entryDx=0;entryDy=0;dashed=1;" edge="1" parent="1" source="y3j9ZMoMXge08qY5BpBT-43" target="y3j9ZMoMXge08qY5BpBT-42">
          <mxGeometry relative="1" as="geometry" />
        </mxCell>
        <mxCell id="y3j9ZMoMXge08qY5BpBT-43" value="FileBasedDatabaseConfiguration" style="rounded=0;whiteSpace=wrap;html=1;fillColor=#ffe6cc;strokeColor=#d79b00;" vertex="1" parent="1">
          <mxGeometry x="780" y="970" width="200" height="60" as="geometry" />
        </mxCell>
        <mxCell id="y3j9ZMoMXge08qY5BpBT-46" value="Implements" style="text;html=1;align=center;verticalAlign=middle;whiteSpace=wrap;rounded=0;" vertex="1" parent="1">
          <mxGeometry x="670" y="970" width="60" height="30" as="geometry" />
        </mxCell>
        <mxCell id="y3j9ZMoMXge08qY5BpBT-47" value="&lt;b&gt;&lt;u&gt;API&lt;/u&gt;&lt;/b&gt;" style="text;html=1;align=center;verticalAlign=middle;whiteSpace=wrap;rounded=0;" vertex="1" parent="1">
          <mxGeometry x="-850" y="20" width="60" height="30" as="geometry" />
        </mxCell>
        <mxCell id="y3j9ZMoMXge08qY5BpBT-48" value="&lt;b&gt;&lt;u&gt;Data&lt;/u&gt;&lt;/b&gt;" style="text;html=1;align=center;verticalAlign=middle;whiteSpace=wrap;rounded=0;" vertex="1" parent="1">
          <mxGeometry x="-850" y="495" width="60" height="30" as="geometry" />
        </mxCell>
        <mxCell id="y3j9ZMoMXge08qY5BpBT-50" value="" style="endArrow=none;dashed=1;html=1;rounded=0;" edge="1" parent="1">
          <mxGeometry width="50" height="50" relative="1" as="geometry">
            <mxPoint x="-850" y="481" as="sourcePoint" />
            <mxPoint x="1600" y="480" as="targetPoint" />
          </mxGeometry>
        </mxCell>
        <mxCell id="y3j9ZMoMXge08qY5BpBT-55" style="edgeStyle=orthogonalEdgeStyle;rounded=0;orthogonalLoop=1;jettySize=auto;html=1;exitX=0;exitY=0.5;exitDx=0;exitDy=0;entryX=1;entryY=0.75;entryDx=0;entryDy=0;dashed=1;" edge="1" parent="1" source="y3j9ZMoMXge08qY5BpBT-51" target="y3j9ZMoMXge08qY5BpBT-42">
          <mxGeometry relative="1" as="geometry" />
        </mxCell>
        <mxCell id="y3j9ZMoMXge08qY5BpBT-51" value="InMemoryDatabaseConfiguration" style="rounded=0;whiteSpace=wrap;html=1;fillColor=#ffe6cc;strokeColor=#d79b00;" vertex="1" parent="1">
          <mxGeometry x="780" y="1060" width="200" height="60" as="geometry" />
        </mxCell>
        <mxCell id="y3j9ZMoMXge08qY5BpBT-53" style="edgeStyle=orthogonalEdgeStyle;rounded=0;orthogonalLoop=1;jettySize=auto;html=1;exitX=0;exitY=0.5;exitDx=0;exitDy=0;entryX=1;entryY=0.5;entryDx=0;entryDy=0;" edge="1" parent="1" source="y3j9ZMoMXge08qY5BpBT-52" target="y3j9ZMoMXge08qY5BpBT-41">
          <mxGeometry relative="1" as="geometry" />
        </mxCell>
        <mxCell id="y3j9ZMoMXge08qY5BpBT-52" value="TickerSymbolsRequest" style="rounded=0;whiteSpace=wrap;html=1;fillColor=#d5e8d4;strokeColor=#82b366;" vertex="1" parent="1">
          <mxGeometry x="-260" y="400" width="140" height="60" as="geometry" />
        </mxCell>
        <mxCell id="y3j9ZMoMXge08qY5BpBT-56" value="Implements" style="text;html=1;align=center;verticalAlign=middle;whiteSpace=wrap;rounded=0;" vertex="1" parent="1">
          <mxGeometry x="700" y="1050" width="60" height="30" as="geometry" />
        </mxCell>
        <mxCell id="y3j9ZMoMXge08qY5BpBT-64" style="edgeStyle=orthogonalEdgeStyle;rounded=0;orthogonalLoop=1;jettySize=auto;html=1;exitX=0;exitY=0.5;exitDx=0;exitDy=0;entryX=1;entryY=0.5;entryDx=0;entryDy=0;dashed=1;" edge="1" parent="1" source="y3j9ZMoMXge08qY5BpBT-63" target="y3j9ZMoMXge08qY5BpBT-2">
          <mxGeometry relative="1" as="geometry" />
        </mxCell>
        <mxCell id="y3j9ZMoMXge08qY5BpBT-70" style="edgeStyle=orthogonalEdgeStyle;rounded=0;orthogonalLoop=1;jettySize=auto;html=1;exitX=1;exitY=0.5;exitDx=0;exitDy=0;entryX=0.25;entryY=0;entryDx=0;entryDy=0;fillColor=#d80073;strokeColor=#A50040;" edge="1" parent="1" source="y3j9ZMoMXge08qY5BpBT-63" target="y3j9ZMoMXge08qY5BpBT-69">
          <mxGeometry relative="1" as="geometry" />
        </mxCell>
        <mxCell id="y3j9ZMoMXge08qY5BpBT-65" value="Implements" style="text;html=1;align=center;verticalAlign=middle;whiteSpace=wrap;rounded=0;" vertex="1" parent="1">
          <mxGeometry x="670" y="550" width="60" height="30" as="geometry" />
        </mxCell>
        <mxCell id="y3j9ZMoMXge08qY5BpBT-67" style="edgeStyle=orthogonalEdgeStyle;rounded=0;orthogonalLoop=1;jettySize=auto;html=1;exitX=0;exitY=0.5;exitDx=0;exitDy=0;dashed=1;" edge="1" parent="1" source="y3j9ZMoMXge08qY5BpBT-66" target="y3j9ZMoMXge08qY5BpBT-7">
          <mxGeometry relative="1" as="geometry" />
        </mxCell>
        <mxCell id="y3j9ZMoMXge08qY5BpBT-71" style="edgeStyle=orthogonalEdgeStyle;rounded=0;orthogonalLoop=1;jettySize=auto;html=1;exitX=1;exitY=0.5;exitDx=0;exitDy=0;entryX=0;entryY=0.5;entryDx=0;entryDy=0;fillColor=#d80073;strokeColor=#A50040;" edge="1" parent="1" source="y3j9ZMoMXge08qY5BpBT-66" target="y3j9ZMoMXge08qY5BpBT-69">
          <mxGeometry relative="1" as="geometry" />
        </mxCell>
        <mxCell id="y3j9ZMoMXge08qY5BpBT-101" style="edgeStyle=orthogonalEdgeStyle;rounded=0;orthogonalLoop=1;jettySize=auto;html=1;exitX=0.25;exitY=1;exitDx=0;exitDy=0;entryX=0.5;entryY=0;entryDx=0;entryDy=0;" edge="1" parent="1" source="y3j9ZMoMXge08qY5BpBT-66" target="y3j9ZMoMXge08qY5BpBT-87">
          <mxGeometry relative="1" as="geometry">
            <Array as="points">
              <mxPoint x="850" y="770" />
              <mxPoint x="850" y="860" />
              <mxPoint x="115" y="860" />
            </Array>
          </mxGeometry>
        </mxCell>
        <mxCell id="y3j9ZMoMXge08qY5BpBT-66" value="StockRepository" style="rounded=0;whiteSpace=wrap;html=1;fillColor=#ffe6cc;strokeColor=#d79b00;" vertex="1" parent="1">
          <mxGeometry x="820" y="710" width="180" height="60" as="geometry" />
        </mxCell>
        <mxCell id="y3j9ZMoMXge08qY5BpBT-68" value="Implements" style="text;html=1;align=center;verticalAlign=middle;whiteSpace=wrap;rounded=0;" vertex="1" parent="1">
          <mxGeometry x="680" y="710" width="60" height="30" as="geometry" />
        </mxCell>
        <mxCell id="y3j9ZMoMXge08qY5BpBT-97" style="edgeStyle=orthogonalEdgeStyle;rounded=0;orthogonalLoop=1;jettySize=auto;html=1;exitX=0.75;exitY=1;exitDx=0;exitDy=0;entryX=1;entryY=0.5;entryDx=0;entryDy=0;" edge="1" parent="1" source="y3j9ZMoMXge08qY5BpBT-69" target="y3j9ZMoMXge08qY5BpBT-88">
          <mxGeometry relative="1" as="geometry">
            <Array as="points">
              <mxPoint x="1378" y="1320" />
              <mxPoint x="800" y="1320" />
              <mxPoint x="800" y="1390" />
            </Array>
          </mxGeometry>
        </mxCell>
        <mxCell id="y3j9ZMoMXge08qY5BpBT-102" style="edgeStyle=orthogonalEdgeStyle;rounded=0;orthogonalLoop=1;jettySize=auto;html=1;exitX=0.5;exitY=1;exitDx=0;exitDy=0;entryX=0.75;entryY=1;entryDx=0;entryDy=0;" edge="1" parent="1" source="y3j9ZMoMXge08qY5BpBT-69" target="y3j9ZMoMXge08qY5BpBT-87">
          <mxGeometry relative="1" as="geometry">
            <Array as="points">
              <mxPoint x="1335" y="1490" />
              <mxPoint x="173" y="1490" />
            </Array>
          </mxGeometry>
        </mxCell>
        <mxCell id="y3j9ZMoMXge08qY5BpBT-108" style="edgeStyle=orthogonalEdgeStyle;rounded=0;orthogonalLoop=1;jettySize=auto;html=1;exitX=1;exitY=0.75;exitDx=0;exitDy=0;entryX=0.5;entryY=1;entryDx=0;entryDy=0;" edge="1" parent="1" source="y3j9ZMoMXge08qY5BpBT-69" target="y3j9ZMoMXge08qY5BpBT-86">
          <mxGeometry relative="1" as="geometry">
            <Array as="points">
              <mxPoint x="1440" y="755" />
              <mxPoint x="1440" y="1530" />
              <mxPoint x="-360" y="1530" />
            </Array>
          </mxGeometry>
        </mxCell>
        <mxCell id="y3j9ZMoMXge08qY5BpBT-69" value="StockExchangeDbContext" style="rounded=0;whiteSpace=wrap;html=1;fillColor=#d80073;fontColor=#ffffff;strokeColor=#A50040;" vertex="1" parent="1">
          <mxGeometry x="1250" y="710" width="170" height="60" as="geometry" />
        </mxCell>
        <mxCell id="y3j9ZMoMXge08qY5BpBT-106" style="edgeStyle=orthogonalEdgeStyle;rounded=0;orthogonalLoop=1;jettySize=auto;html=1;exitX=0.25;exitY=1;exitDx=0;exitDy=0;entryX=0.75;entryY=0;entryDx=0;entryDy=0;" edge="1" parent="1" source="y3j9ZMoMXge08qY5BpBT-63" target="y3j9ZMoMXge08qY5BpBT-86">
          <mxGeometry relative="1" as="geometry">
            <Array as="points">
              <mxPoint x="865" y="650" />
              <mxPoint x="790" y="650" />
              <mxPoint x="790" y="950" />
              <mxPoint x="-300" y="950" />
            </Array>
          </mxGeometry>
        </mxCell>
        <mxCell id="y3j9ZMoMXge08qY5BpBT-63" value="BrokerRepository" style="rounded=0;whiteSpace=wrap;html=1;fillColor=#ffe6cc;strokeColor=#d79b00;" vertex="1" parent="1">
          <mxGeometry x="820" y="550" width="180" height="60" as="geometry" />
        </mxCell>
        <mxCell id="y3j9ZMoMXge08qY5BpBT-75" style="edgeStyle=orthogonalEdgeStyle;rounded=0;orthogonalLoop=1;jettySize=auto;html=1;exitX=0;exitY=0.5;exitDx=0;exitDy=0;entryX=1;entryY=0.5;entryDx=0;entryDy=0;dashed=1;" edge="1" parent="1" source="y3j9ZMoMXge08qY5BpBT-74" target="y3j9ZMoMXge08qY5BpBT-11">
          <mxGeometry relative="1" as="geometry" />
        </mxCell>
        <mxCell id="y3j9ZMoMXge08qY5BpBT-78" style="edgeStyle=orthogonalEdgeStyle;rounded=0;orthogonalLoop=1;jettySize=auto;html=1;exitX=1;exitY=0.5;exitDx=0;exitDy=0;entryX=0.25;entryY=1;entryDx=0;entryDy=0;fillColor=#d80073;strokeColor=#A50040;" edge="1" parent="1" source="y3j9ZMoMXge08qY5BpBT-74" target="y3j9ZMoMXge08qY5BpBT-69">
          <mxGeometry relative="1" as="geometry" />
        </mxCell>
        <mxCell id="y3j9ZMoMXge08qY5BpBT-93" style="edgeStyle=orthogonalEdgeStyle;rounded=0;orthogonalLoop=1;jettySize=auto;html=1;exitX=1;exitY=0.75;exitDx=0;exitDy=0;entryX=1;entryY=0;entryDx=0;entryDy=0;" edge="1" parent="1" source="y3j9ZMoMXge08qY5BpBT-74" target="y3j9ZMoMXge08qY5BpBT-88">
          <mxGeometry relative="1" as="geometry">
            <Array as="points">
              <mxPoint x="1030" y="915" />
              <mxPoint x="1030" y="1200" />
              <mxPoint x="720" y="1200" />
            </Array>
          </mxGeometry>
        </mxCell>
        <mxCell id="y3j9ZMoMXge08qY5BpBT-74" value="TradeRepository" style="rounded=0;whiteSpace=wrap;html=1;fillColor=#ffe6cc;strokeColor=#d79b00;" vertex="1" parent="1">
          <mxGeometry x="810" y="870" width="180" height="60" as="geometry" />
        </mxCell>
        <mxCell id="y3j9ZMoMXge08qY5BpBT-76" value="Implements" style="text;html=1;align=center;verticalAlign=middle;whiteSpace=wrap;rounded=0;" vertex="1" parent="1">
          <mxGeometry x="690" y="870" width="60" height="30" as="geometry" />
        </mxCell>
        <mxCell id="y3j9ZMoMXge08qY5BpBT-79" value="&lt;b&gt;Extends class&amp;nbsp;DbContext&lt;/b&gt;" style="text;html=1;align=center;verticalAlign=middle;whiteSpace=wrap;rounded=0;" vertex="1" parent="1">
          <mxGeometry x="1450" y="725" width="140" height="30" as="geometry" />
        </mxCell>
        <mxCell id="y3j9ZMoMXge08qY5BpBT-80" value="" style="shape=flexArrow;endArrow=classic;html=1;rounded=0;exitX=1;exitY=0.5;exitDx=0;exitDy=0;fillColor=#d80073;strokeColor=#A50040;" edge="1" parent="1" source="y3j9ZMoMXge08qY5BpBT-69">
          <mxGeometry width="50" height="50" relative="1" as="geometry">
            <mxPoint x="1430" y="790" as="sourcePoint" />
            <mxPoint x="1460" y="740" as="targetPoint" />
          </mxGeometry>
        </mxCell>
        <mxCell id="y3j9ZMoMXge08qY5BpBT-81" value="StockExchangeDbContextFactory" style="rounded=0;whiteSpace=wrap;html=1;fillColor=#6a00ff;fontColor=#ffffff;strokeColor=#3700CC;" vertex="1" parent="1">
          <mxGeometry x="-790" y="600" width="200" height="60" as="geometry" />
        </mxCell>
        <mxCell id="y3j9ZMoMXge08qY5BpBT-82" value="" style="shape=flexArrow;endArrow=classic;html=1;rounded=0;fillColor=#6a00ff;strokeColor=#3700CC;" edge="1" parent="1">
          <mxGeometry width="50" height="50" relative="1" as="geometry">
            <mxPoint x="-590" y="625" as="sourcePoint" />
            <mxPoint x="-540" y="625" as="targetPoint" />
          </mxGeometry>
        </mxCell>
        <mxCell id="y3j9ZMoMXge08qY5BpBT-83" value="&lt;b&gt;Implements:&lt;/b&gt;&lt;div&gt;&amp;nbsp;IDesignTimeDbContextFactory&amp;lt;StockExchangeDbContext&amp;gt;&lt;br&gt;&lt;/div&gt;" style="text;html=1;align=center;verticalAlign=middle;whiteSpace=wrap;rounded=0;" vertex="1" parent="1">
          <mxGeometry x="-530" y="615" width="290" height="30" as="geometry" />
        </mxCell>
        <mxCell id="y3j9ZMoMXge08qY5BpBT-84" value="" style="endArrow=none;dashed=1;html=1;rounded=0;" edge="1" parent="1">
          <mxGeometry width="50" height="50" relative="1" as="geometry">
            <mxPoint x="-850" y="1280" as="sourcePoint" />
            <mxPoint x="1700" y="1280" as="targetPoint" />
          </mxGeometry>
        </mxCell>
        <mxCell id="y3j9ZMoMXge08qY5BpBT-85" value="&lt;b&gt;&lt;u&gt;Domain&lt;/u&gt;&lt;/b&gt;" style="text;html=1;align=center;verticalAlign=middle;whiteSpace=wrap;rounded=0;" vertex="1" parent="1">
          <mxGeometry x="-840" y="1310" width="60" height="30" as="geometry" />
        </mxCell>
        <mxCell id="y3j9ZMoMXge08qY5BpBT-86" value="Broker" style="rounded=0;whiteSpace=wrap;html=1;fillColor=#b1ddf0;strokeColor=#10739e;" vertex="1" parent="1">
          <mxGeometry x="-480" y="1360" width="240" height="60" as="geometry" />
        </mxCell>
        <mxCell id="y3j9ZMoMXge08qY5BpBT-87" value="Stock" style="rounded=0;whiteSpace=wrap;html=1;fillColor=#b1ddf0;strokeColor=#10739e;" vertex="1" parent="1">
          <mxGeometry y="1360" width="230" height="60" as="geometry" />
        </mxCell>
        <mxCell id="y3j9ZMoMXge08qY5BpBT-103" style="edgeStyle=orthogonalEdgeStyle;rounded=0;orthogonalLoop=1;jettySize=auto;html=1;exitX=0;exitY=0.5;exitDx=0;exitDy=0;" edge="1" parent="1" source="y3j9ZMoMXge08qY5BpBT-88" target="y3j9ZMoMXge08qY5BpBT-87">
          <mxGeometry relative="1" as="geometry" />
        </mxCell>
        <mxCell id="y3j9ZMoMXge08qY5BpBT-111" style="edgeStyle=orthogonalEdgeStyle;rounded=0;orthogonalLoop=1;jettySize=auto;html=1;exitX=0.25;exitY=1;exitDx=0;exitDy=0;entryX=0.75;entryY=1;entryDx=0;entryDy=0;" edge="1" parent="1" source="y3j9ZMoMXge08qY5BpBT-88" target="y3j9ZMoMXge08qY5BpBT-86">
          <mxGeometry relative="1" as="geometry">
            <Array as="points">
              <mxPoint x="540" y="1460" />
              <mxPoint x="-300" y="1460" />
            </Array>
          </mxGeometry>
        </mxCell>
        <mxCell id="y3j9ZMoMXge08qY5BpBT-88" value="Trade" style="rounded=0;whiteSpace=wrap;html=1;fillColor=#b1ddf0;strokeColor=#10739e;" vertex="1" parent="1">
          <mxGeometry x="480" y="1360" width="240" height="60" as="geometry" />
        </mxCell>
        <mxCell id="y3j9ZMoMXge08qY5BpBT-89" value="CustomExceptions" style="rounded=0;whiteSpace=wrap;html=1;fillColor=#b0e3e6;strokeColor=#0e8088;" vertex="1" parent="1">
          <mxGeometry x="960" y="1360" width="230" height="60" as="geometry" />
        </mxCell>
      </root>
    </mxGraphModel>
  </diagram>
</mxfile>
